<?xml version="1.0" encoding="UTF-8"?>
<svg id="Layer_2" data-name="Layer 2" xmlns="http://www.w3.org/2000/svg" xmlns:xlink="http://www.w3.org/1999/xlink" viewBox="0 0 431.43 371.49">
  <defs>
    <style>
      .cls-1, .cls-2 {
        stroke-width: .75px;
      }

      .cls-1, .cls-2, .cls-3 {
        stroke: #f6e7d7;
      }

      .cls-1, .cls-2, .cls-3, .cls-4 {
        stroke-miterlimit: 10;
      }

      .cls-1, .cls-5 {
        fill: #f6e7d7;
      }

      .cls-6, .cls-5, .cls-7 {
        stroke-width: 0px;
      }

      .cls-6, .cls-3 {
        fill: none;
      }

      .cls-2, .cls-4 {
        fill: #15c484;
      }

      .cls-8 {
        clip-path: url(#clippath);
      }

      .cls-7 {
        fill: #101418;
      }

      .cls-3 {
        stroke-width: 5px;
      }

      .cls-4 {
        stroke: #15c484;
        stroke-width: 3px;
      }
    </style>
    <clipPath id="clippath">
      <path class="cls-6" d="M28.04-2v375.49h375.49V-2H28.04ZM29.23,193.85c-.13-2.91-.19-5.56-.19-8.1,0-.19,0-.39,0-.58l14.36-1.83c-.01.8-.03,1.61-.03,2.4,0,2.69.09,5.4.21,8.1h-14.37Z"/>
    </clipPath>
  </defs>
  <g id="Layer_1-2" data-name="Layer 1">
    <path class="cls-7" d="M390.69,185.75c0,96.44-78.46,174.9-174.9,174.9S40.88,282.19,40.88,185.75,119.34,10.84,215.79,10.84s171.05,74.66,174.76,167.85c.1,2.34.14,4.69.14,7.06Z"/>
    <g>
      <g>
        <circle class="cls-2" cx="293.97" cy="74.84" r="9.96"/>
        <path class="cls-1" d="M293.97,85.51c-5.88,0-10.66-4.78-10.66-10.66s4.78-10.66,10.66-10.66,10.66,4.78,10.66,10.66-4.78,10.66-10.66,10.66ZM293.97,65.59c-5.1,0-9.25,4.15-9.25,9.25s4.15,9.25,9.25,9.25,9.25-4.15,9.25-9.25-4.15-9.25-9.25-9.25Z"/>
      </g>
      <g>
        <path class="cls-4" d="M215.79,369.99c-101.59,0-184.25-82.65-184.25-184.24S114.2,1.5,215.79,1.5s184.24,82.65,184.24,184.25-82.65,184.24-184.24,184.24ZM390.56,178.69c-3.72-93.19-80.69-167.85-174.77-167.85S40.88,89.3,40.88,185.75s78.46,174.9,174.91,174.9,174.91-78.46,174.91-174.9c0-2.36-.05-4.72-.14-7.06"/>
        <g>
          <path class="cls-5" d="M102.32,178.36l-7.91,4.36,29.28-65.16,10.65-23.7c3.24,14.27,28.95,130,32.85,147.28,0,0-16.36-.53-16.36-.53,8.88-26.47,62.36-185.56,69.91-208.07,2.03,17.98,26.73,236.05,29.51,260.58,0,0-16.48-.99-16.48-.99l54.66-170.96s6.6-20.63,6.6-20.63c0,0,9.41,19.96,9.41,19.96l29.28,62.13s-7.8-4.27-7.8-4.27c0,0,105.35,7.14,105.35,7.14l-105.49,5.84s-5.65.31-5.65.31c0,0-2.16-4.58-2.16-4.58l-29.28-62.13s16-.67,16-.67c-8.81,27.64-59.14,184.91-66.75,208.76-2.24-19.5-26.72-236.13-29.66-261.95,0,0,16.45,1.07,16.45,1.07l-57.7,171.72s-9.76,29.06-9.76,29.06c0,0-6.6-29.59-6.6-29.59l-27.33-122.55s16.17,1.03,16.17,1.03l-29.28,65.16-1.96,4.36H.32l102-12.99Z"/>
          <path class="cls-5" d="M102.32,178.36l-7.91,4.36,29.28-65.16,10.65-23.7c3.24,14.27,28.95,130,32.85,147.28,0,0-16.36-.53-16.36-.53,8.88-26.47,62.36-185.56,69.91-208.07,2.03,17.98,26.73,236.05,29.51,260.58,0,0-16.48-.99-16.48-.99l54.66-170.96s6.6-20.63,6.6-20.63c0,0,9.41,19.96,9.41,19.96l29.28,62.13s-7.8-4.27-7.8-4.27c0,0,105.35,7.14,105.35,7.14l-105.49,5.84s-5.65.31-5.65.31c0,0-2.16-4.58-2.16-4.58l-29.28-62.13s16-.67,16-.67c-8.81,27.64-59.14,184.91-66.75,208.76-2.24-19.5-26.72-236.13-29.66-261.95,0,0,16.45,1.07,16.45,1.07l-57.7,171.72s-9.76,29.06-9.76,29.06c0,0-6.6-29.59-6.6-29.59l-27.33-122.55s16.17,1.03,16.17,1.03l-29.28,65.16-1.96,4.36H.32l102-12.99Z"/>
          <path class="cls-3" d="M102.32,178.36l-7.91,4.36,29.28-65.16,10.65-23.7c3.24,14.27,28.95,130,32.85,147.28,0,0-16.36-.53-16.36-.53,8.88-26.47,62.36-185.56,69.91-208.07,2.03,17.98,26.73,236.05,29.51,260.58,0,0-16.48-.99-16.48-.99l54.66-170.96s6.6-20.63,6.6-20.63c0,0,9.41,19.96,9.41,19.96l29.28,62.13s-7.8-4.27-7.8-4.27c0,0,105.35,7.14,105.35,7.14l-105.49,5.84s-5.65.31-5.65.31c0,0-2.16-4.58-2.16-4.58l-29.28-62.13s16-.67,16-.67c-8.81,27.64-59.14,184.91-66.75,208.76-2.24-19.5-26.72-236.13-29.66-261.95,0,0,16.45,1.07,16.45,1.07l-57.7,171.72s-9.76,29.06-9.76,29.06c0,0-6.6-29.59-6.6-29.59l-27.33-122.55s16.17,1.03,16.17,1.03l-29.28,65.16-1.96,4.36H.32l102-12.99Z"/>
        </g>
        <g class="cls-8">
          <path class="cls-4" d="M215.79,369.99c-101.59,0-184.25-82.65-184.25-184.24S114.2,1.5,215.79,1.5s184.24,82.65,184.24,184.25-82.65,184.24-184.24,184.24ZM390.56,178.69c-3.72-93.19-80.69-167.85-174.77-167.85S40.88,89.3,40.88,185.75s78.46,174.9,174.91,174.9,174.91-78.46,174.91-174.9c0-2.36-.05-4.72-.14-7.06"/>
        </g>
      </g>
    </g>
  </g>
</svg>
